<svg
            width="20"
              viewBox="0 38.9 512 434.19"
            >
              <g>
                <g>
                  <path
                    d="M240.478,42.234l-140.282,96.87v233.791l140.282,96.87c10.986,8.178,26.712,0.38,26.712-13.373V55.607    C267.19,41.939,251.545,34.024,240.478,42.234z"
                    fill="#BAA8ED"
                  />
                </g>
              </g>
              <path
                fill="#BAA8ED"
                d="M504.964,199.387c-9.379-9.38-24.587-9.38-33.968,0l-22.647,22.645l-22.645-22.645  c-9.379-9.38-24.587-9.38-33.968,0s-9.38,24.587,0,33.968L414.382,256l-22.645,22.645c-9.38,9.38-9.38,24.589,0,33.968  c4.69,4.69,10.837,7.036,16.985,7.036c6.147,0,12.294-2.344,16.983-7.036l22.645-22.645l22.647,22.645  c4.69,4.69,10.837,7.036,16.983,7.036c6.147,0,12.294-2.344,16.983-7.036c9.38-9.379,9.38-24.587,0-33.968L482.316,256  l22.647-22.645C514.346,223.975,514.346,208.766,504.964,199.387z"
              />
              <g>
                <g>
                  <path
                    d="M16.699,139.104C7.477,139.104,0,146.581,0,155.804v200.393c0,9.223,7.477,16.699,16.699,16.699h50.098V139.104H16.699z"
                    fill="#BAA8ED"
                  />
                </g>
              </g>
</svg>